<svg xmlns="http://www.w3.org/2000/svg" viewBox="0 0 1290.09 742.9"><g id="Layer_2" data-name="Layer 2"><g id="Layer_1-2" data-name="Layer 1"><path d="M130.37.22c-45.51-3.34-89.91,31.38-95.66,77-3.08,24.48,6.08,50.24,28.07,63.08,22.93,13.38,48.65,4.57,67.37-11.84,9.73-8.52,14.63-21.15,4.71-31.69C124.75,86,109.19,88.23,97.62,80.46V89.1a102.86,102.86,0,0,1,18.58-7.45c6.51-1.88,13.07-2.31,19.63-3.67,2.25-.47,1.88-1.26,1.93.11a40.13,40.13,0,0,1-.32,4.38c-.25,3.24-.55,6.47-.85,9.7-.61,6.49-1.25,13-1.63,19.48-.74,12.52-.51,25.35,2.78,37.53,2.37,8.78,7.74,23.68,19.63,20.2,6.16-1.81,3.54-11.46-2.66-9.65-4.11,1.21-7.1-12.2-7.75-14.87a88.85,88.85,0,0,1-2.32-19.16c-.29-13.28,1.37-26.5,2.51-39.71.41-4.71,2-11.26-1.44-15.22C141.83,66.33,135,68,129.86,68.63A114.39,114.39,0,0,0,92.58,80.46c-3.55,1.83-2.93,6.67,0,8.64,8.85,5.94,19.59,5.64,28.89,10.23,3.69,1.82,7.94,4.78,8.94,9,1.2,5.13-3.3,9.42-6.74,12.5-15.83,14.15-37.76,22.12-57.1,10-18.17-11.35-24.86-33.58-21.79-54C47.63,57.93,58.05,41.15,72.7,29a81.48,81.48,0,0,1,57.67-18.76c6.42.47,6.39-9.53,0-10Z"/><path d="M197.8,44.05c-21.41,1.64-31,22.45-33.09,41.41-2.14,19.36,2.77,41.32,16,56.11,12.28,13.75,31.87,16.14,45.75,3.24,14.6-13.56,13.4-36.33,3.55-52.24A74.34,74.34,0,0,0,207.8,70.26c-7.89-5.23-20.63-6.05-23.62,5.18-1.65,6.22,8,8.88,9.65,2.65s13.92,4.48,16,6.29a57.8,57.8,0,0,1,13.11,16c6.42,12,6.85,28.38-4.1,37.88s-24.32,5-32.52-5.42c-8.76-11.11-12.33-26.43-12.06-40.34.28-14.6,5.6-37,23.55-38.41,6.38-.48,6.43-10.49,0-10Z"/><path d="M266.24,145.87a184.47,184.47,0,0,1-12.1-52.4,186.8,186.8,0,0,1-.1-27.18c.47-6.7.37-18.45,7.77-21.74,6.95-3.1,11,7,12.73,11.9,2.88,8.08,5.32,16.32,7.75,24.54,4.78,16.2,9.18,32.51,14.62,48.51,6.07,17.85,13.49,35.3,23.71,51.19a5.12,5.12,0,0,0,5.65,2.3,13,13,0,0,0,6.85-5c3.92-5.09-4.76-10.08-8.63-5l-.88.44,5.65,2.29C308,142.61,300,103.81,288.45,66.82c-3.85-12.34-9.72-36.85-27.86-32.4-18.46,4.53-17.12,31.88-17,46.37a192.85,192.85,0,0,0,13,67.74c2.3,5.94,12,3.36,9.65-2.66Z"/><path d="M258.56,112.5a129.16,129.16,0,0,0,39.08-12.42c5.76-2.88.7-11.51-5.05-8.64a120.77,120.77,0,0,1-36.68,11.41c-6.35.94-3.65,10.57,2.65,9.65Z"/><path d="M312.08,43.91a952.39,952.39,0,0,1,26.24,116.55c.58,3.61,6.07,4.93,8.36,2.21,5.7-6.8,12.23-14.8,21.05-17.48,10.37-3.15,19.76,4.66,28.69,8.71,15.48,7,38.75,8.76,46.86-10,2.53-5.85-6.08-10.95-8.63-5-3.59,8.3-12.47,11.31-21,10.15-10.52-1.41-19-7.91-28.62-11.87-19-7.83-33.76,4.59-45.42,18.48L348,157.8A952.39,952.39,0,0,0,321.72,41.25c-1.8-6.16-11.45-3.54-9.64,2.66Z"/><path d="M456.72,29.35c-9.79-13.58-28.51-5.43-39.86,1.58C403.41,39.25,392,57,403.34,71.77c4.72,6.15,12,9.54,19.23,11.84,9.84,3.13,20.09,4.87,30.15,7.11,17.38,3.85,38.3,9.47,48.94,25.13,4.79,7.06,7.46,17.68-.56,23.55-5.81,4.25-24.84,10.34-26.64-.44-1.06-6.34-10.7-3.65-9.64,2.65,3.18,19,30.77,14.06,41.89,6,14.4-10.42,10.35-29.4.15-41.28C494.91,92.4,476.45,86,459.13,81.93c-10.3-2.42-20.75-4.2-30.93-7.08-7.06-2-16.7-5.14-19-13.06-3.13-10.77,7.32-19.31,15.52-23.86,5.1-2.82,18.49-10.3,23.36-3.54,3.73,5.18,12.41.19,8.64-5Z"/><path d="M106.43,200.43c-15-15.85-39.27-18.24-58.94-10.43-22.26,8.84-36.26,29.92-42.6,52.3-6.59,23.29-7.43,50.95,3.17,73.18C18.33,337,41.89,350.74,65.7,349.31c26.11-1.57,48.75-21.47,54.48-46.85,1.42-6.27-8.22-8.95-9.64-2.66-4.31,19.09-19.59,34.72-38.89,38.73-19.63,4.08-41.26-5.46-51.83-22.38-11.5-18.41-11.47-43.06-7.13-63.69,4.08-19.37,13.64-39.48,31.38-49.78,17.11-9.93,41-10.22,55.28,4.82,4.44,4.68,11.5-2.4,7.08-7.07Z"/><path d="M122.65,276.82l19.21,52,9.14-3.85a50.12,50.12,0,0,1-8.9-31.74c.19-2.84.71-12.49,4.47-13.32s7.69,7.71,9.17,10.34c4.32,7.7,9.75,14.8,19.22,15.56,8.54.69,17.39-4,20.92-11.9,2.6-5.83-6-10.92-8.63-5.05a11.37,11.37,0,0,1-10.5,7c-5.14.05-8.19-3.56-10.66-7.68-4.51-7.5-10.53-20.77-21.63-18.16-10.5,2.47-12.31,16.78-12.46,25.6A59.37,59.37,0,0,0,142.36,330c3,4.37,11.23,1.81,9.14-3.85l-19.21-52c-2.21-6-11.88-3.4-9.64,2.66Z"/><path d="M195.39,300.85c16.16-2.9,28-21.61,21.77-37.34-3.07-7.73-11.33-11.62-18.77-7-7.62,4.7-10.16,14.25-10.55,22.61a51.19,51.19,0,0,0,21.87,43.77c7.43,5.12,16.4,7.21,23.15-.12s6.79-18.39,6.86-27.76c.05-8,.56-24.56,11.67-25.91,5.45-.67,10,4.67,13,8.44A56.32,56.32,0,0,1,273.61,294l9.14-3.85c-4.53-9.47-21.88-36.44-33.2-19.16-4.12,6.3-4.57,15.3-3.87,22.55A48.27,48.27,0,0,0,253.37,316c3.86,5.66,9.52,10.18,16.65,10.28,6.63.1,12.94-3.48,17.21-8.38,12.07-13.88,5.2-32.24-1.32-46.95-2.44-5.51-10.09-1.33-9.14,3.85,2.39,12.94,5.17,26.38,13.46,37,6.82,8.71,17.89,14.39,29.1,13.52,11.41-.88,19.54-8.72,22.44-19.58,1.62-6.06,1.77-12.49,1.94-18.72q.33-12.72-.16-25.46c-.56-14.31-1.48-28.93-5-42.87-2.8-11.11-7.9-25.5-17.48-32.61-11.08-8.23-19.18,4.37-19.21,14.59,0,13.18,3.53,27.05,7.61,39.5,10.12,30.89,27.89,58.5,45.55,85.52,3.51,5.37,11.71.65,8.64-5a201.31,201.31,0,0,0-47.84-58.77c-2.48-2.09-6-1.92-7.85,1-10.33,16.74,12,32.43,25.56,36.75a51.21,51.21,0,0,0,49.91-11.23c6.47-5.9,12.28-14.18,14-22.88,1.64-8.15-1.8-17.38-10.47-19.66-8.88-2.33-14.7,5.61-17.31,12.93a41.07,41.07,0,0,0-.15,26.22c6.56,19.8,27.1,30.72,47.28,26.82,6.31-1.22,3.64-10.86-2.66-9.64-15.62,3-31.55-6.5-35.62-22-1.78-6.76-1.5-14.52,1.68-20.86,1.84-3.68,5.74-5.59,7.45-.45,1.29,3.87-1.07,8.61-2.88,11.87A41.48,41.48,0,0,1,348.51,292a42.38,42.38,0,0,1-22.22-6.75c-5.05-3.24-13.79-10.68-9.67-17.36l-7.85,1A193.71,193.71,0,0,1,355,325.65l8.64-5c-12.76-19.51-25.48-39.18-35.41-60.31a190.52,190.52,0,0,1-11.83-31.86,149.14,149.14,0,0,1-3.37-15.92c-.75-4.89-2-10.64-.81-15.55.42-1.79.72-3.64,2.57-3.19s4.41,5.07,5.36,6.54a62.8,62.8,0,0,1,6.94,14.76c3.48,10.58,4.81,21.69,5.64,32.76q1.43,19,1,38.17c-.22,9,.36,22.25-8.67,27.46-8.35,4.82-19.74.31-25.71-6.29-8.5-9.4-10.72-23-12.93-35.05L277.28,276c4.1,9.27,10,21.9,4.81,31.86-4.36,8.35-14.09,11.55-20.09,3.1-5.85-8.24-7.84-19.62-5.84-29.45.33-1.63,1-5.91,3.29-5.79,1.5.09,4.78,4.5,5.64,5.47a60,60,0,0,1,9,14c2.42,5.07,11.07,1.49,9.14-3.85-4.51-12.5-14.73-31.42-30-32.23-14.88-.79-22.44,15.4-23.36,27.94-.61,8.42,1.25,18.36-2.61,26.21-2,4.08-4.82,5.39-9,3.21a36,36,0,0,1-9-6.88c-9.15-9.46-15.11-26.12-9.89-38.94,1.12-2.74,4.51-8.29,7.63-5,2.37,2.53,2,7.79,1.25,10.85a19.48,19.48,0,0,1-15.59,14.7c-6.32,1.14-3.64,10.78,2.66,9.65Z"/><path d="M531.56,238.92c-11.06-8.85-26.52-7.69-37.23,1.28-11.18,9.37-15.89,25.51-15.12,39.7.71,12.91,5.73,26.1,16.22,34.16,5.11,3.94,11.71,7.23,17.62,3s8-13.8,9.74-20.46a111.93,111.93,0,0,0-.2-56.92c-1.65-6.21-11.25-3.58-9.64,2.66,8.09,31.48,21.41,66.22,55,77.53,6.12,2.06,8.74-7.6,2.66-9.64-29.9-10.06-40.95-42.92-48-70.55L513,242.3a101.24,101.24,0,0,1,1,48.16,104,104,0,0,1-2.87,10.22,44,44,0,0,1-2.17,5.66c-1,2-1.23,2.78-3.44,2.35-5.05-1-9.77-8.1-11.94-12.25-5.73-10.95-5.75-24.76-1.32-36.15,4.59-11.82,19.84-24.22,32.24-14.3,5,4,12.1-3.05,7.07-7.07Z"/><path d="M637.42,317.62c8.83-31.36,16.83-68.37-2.33-97.62-2.83-4.31-8.89-2.4-9.32,2.52a132.36,132.36,0,0,0,20.42,82.63c5.75,8.93,17.11,27.73,30.25,21.61,6-2.82,8.19-9.72,9.81-15.66a96.17,96.17,0,0,0,3.24-21.25,97.36,97.36,0,0,0-11.08-48.79c-1.85-3.56-8.49-3.1-9.13,1.2-4,26.28,5.53,53.78,25.41,71.64,7.37,6.62,24.9,20.21,32.16,6.27,2.92-5.61,2.36-13.63,2.76-19.77a232.61,232.61,0,0,0,.52-23.47c-.62-16.7-4-33.32-13-47.63-2.21-3.52-8.06-3.11-9.13,1.2-6.43,25.78,18.11,50.21,43.8,41.34,11.45-4,20.52-13.3,22.65-25.42,2.2-12.51-2.42-26-12.54-33.87-2.76-2.15-7.42-1.84-8.36,2.21a111.15,111.15,0,0,0,4,63.79c6.3,16.88,18.92,41.56,39.16,44,10.24,1.21,18.13-5.34,22.62-14,5-9.65,8.14-20.64,10.6-31.17a188.32,188.32,0,0,0,3-69A181,181,0,0,0,825,175c-3.23-9.45-6.74-20.8-13.63-28.27-6.15-6.67-16.14-7.41-21.84.24-6.06,8.14-5.94,21.05-6.35,30.71-1.06,24.91,3.33,49.88,10.26,73.73,3.5,12,7.68,23.88,12.23,35.55,4.15,10.62,8,22,15,31.14,7.08,9.34,18.51,16.26,30.57,14,8.72-1.66,15.38-8.12,19-16,9.69-21,2.24-46.42-7.88-65.81-1.38-2.66-5.85-3.46-7.85-1-3,3.71-4.2,7.76-2.79,12.44.86,2.83,4.64,5,7.35,3l19.82-14.41c5.16-3.74.17-12.42-5-8.63L854,256l7.35,3a2.29,2.29,0,0,1,.21-2.7l-7.85-1c7.67,14.71,13.79,33.2,9.75,49.87-1.42,5.88-4.15,12.14-9.57,15.35-7.71,4.59-16.91.59-22.65-5.3-6.8-7-10.29-16.79-13.85-25.68-3.85-9.59-7.46-19.28-10.68-29.1-6.35-19.35-11.33-39.34-13-59.68a179.09,179.09,0,0,1,0-30.46c.3-3.49,1.05-22.51,8.61-18.3,3.23,1.79,5.07,6.23,6.55,9.39,2,4.26,3.79,8.62,5.4,13a177.32,177.32,0,0,1,9,84.07,174.41,174.41,0,0,1-6.11,27.75c-2.33,7.59-4.76,17.79-10.76,23.41-8.23,7.71-19-1.11-24.5-7.74a90.28,90.28,0,0,1-14.72-26,101.65,101.65,0,0,1-4-58.49l-8.35,2.21c15,11.68,13,35.93-5.7,42.57-18.24,6.5-36.17-10.33-31.5-29l-9.14,1.2c8.39,13.33,11.27,28.69,11.68,44.25.21,7.83-.14,15.66-.68,23.47-.25,3.51-.33,7.1-.84,10.57-.68,4.73-3.37,3.57-6.84,1.54-23.42-13.63-36.93-42.56-32.9-69.27l-9.14,1.2a87.08,87.08,0,0,1,9.67,44.58c-.38,7.62-1.54,16-4.5,23.11-2,4.7-4.7,4.67-8.46,1.31a55.73,55.73,0,0,1-7-8.3,123.38,123.38,0,0,1-23.69-84.29L626.45,225c17.64,26.92,9.43,61.16,1.33,89.92-1.75,6.2,7.89,8.85,9.64,2.66Z"/><path d="M890.87,257.26c13.38-6,28-17.26,24.37-33.93-2.73-12.6-20.51-19.69-29.28-8.46-4.43,5.66-3.54,13.59.19,19.36,4.28,6.62,11.29,9.72,18.11,13.06a42.64,42.64,0,0,1,23,28.35c3.42,13.21,1.32,28.17-7.63,38.8L928.2,318c-1.78-15.45,4.87-29.32,11.69-42.72,6.94-13.61,13.91-27.12,15.84-42.48.71-5.57-8.7-6.82-9.82-1.33-3.65,18-6.29,39.2,5,55.16,9.11,12.89,25.72,21,40.94,13.82,13.68-6.43,19.78-22.32,22.42-36.25,3.94-20.81,4.31-42.78,2.45-63.83-1.62-18.34-6.07-38.34-21.3-50.31-2.51-2-6-2-7.85,1-17.69,29.35-8.06,64,5.25,92.94,15,32.52,32.69,63.9,51.92,94.08,2.88,4.52,11.33,1.66,9.14-3.86A343.7,343.7,0,0,0,1005,249c-2.64-3.37-8.85-.58-8.53,3.54,1.5,19.45,18.66,33.06,37.51,34.08,10.75.58,21.6-2.73,30.94-7.9,8.22-4.55,16.61-11,19.46-20.37,2.5-8.21-1.13-18-9-21.88-8.33-4.1-17,1.31-20.52,9.06-8.7,19.07,5.38,39.95,19.48,51.95,8.29,7.05,18.51,13.57,29.85,12.89,9.92-.58,19.06-6.56,22-16.27,1.86-6.18-7.79-8.82-9.64-2.66-4.4,14.66-23.19,8-31.6,1.76-10.45-7.71-21.31-19.54-22.49-33.07-.38-4.46.32-14.06,6.22-15,7.12-1.11,7.08,9.4,4.82,13.34-6.47,11.33-23.85,17.91-36.24,18.19-14.15.32-29.6-8.88-30.77-24.13l-8.54,3.53a327.46,327.46,0,0,1,46.34,80.78l9.14-3.85a843.2,843.2,0,0,1-48.81-87.48c-13.12-27.28-25.51-61-8.37-89.44l-7.85,1c11.29,8.87,15.66,22.65,17.61,36.4,2.4,16.92,2.22,34.48.75,51.48-1.15,13.25-2.67,28.42-10.92,39.44-8.57,11.45-23,10.7-32.79,1.1-13.6-13.39-10.88-34.46-7.43-51.42l-9.83-1.33c-3.79,30.15-31.18,53.42-27.53,85.2.43,3.81,5.43,7.22,8.53,3.53,13.55-16.1,15.37-38.85,6.89-57.81a50.14,50.14,0,0,0-20.27-22.94c-5.52-3.2-12.49-5-17-9.69-3.67-3.77-5.37-12.14,2.17-11.69,7.71.45,8.35,9.41,5.75,15-3.39,7.29-11.44,11.13-18.4,14.24-5.87,2.61-.79,11.23,5,8.63Z"/><path d="M953.21,187.22c6.44,0,6.45-10,0-10s-6.44,10,0,10Z"/><path d="M10.05,506.05c28.46-2.57,46.86-27.3,52.55-53.6,4.05-18.71,8.49-57.06-17.07-63.16a5.14,5.14,0,0,0-5.64,2.3c-5.85,9.55-3.73,20.69.3,30.52,4.59,11.23,10.4,22.08,16.16,32.74a551.45,551.45,0,0,0,41.07,64.62c3.76,5.1,11.69.78,8.64-5C92.7,489,77.86,462.18,51.79,447.83a5.09,5.09,0,0,0-6.06.78c-8,9-7.61,22.63.05,31.76,8.4,10,23.46,11.6,35.06,6.88C105.68,477.16,116,445.36,114,420.61a79.46,79.46,0,0,0-15.77-42.06c-2.76-3.61-9.47-2.94-9.32,2.52C90.15,425.19,111,465,131.42,503c2.62,4.87,11.28,1.49,9.13-3.85a82.66,82.66,0,0,1,7.38-76H139.3c12.72,22.27,6.66,53,26.32,71.77,9.07,8.66,26.54,11,29-4.8,2.85-18-3-36.46,1.44-54.31.91-3.68,2.41-8.39,6.12-10.16,3.88-1.85,8.5.26,11.75,2.45,7.53,5.07,12.18,13.26,20.14,17.95l3.85-9.14c-11-3.95-16.72-18.54-30.46-14.62C194.3,426,192,443,193.32,454.52c1.61,13.55,8.55,30.08,21.1,37,12.78,7.07,24.61-2.71,28.38-14.94,4.9-15.87-2-34-12.91-45.69-3.77-4.05-9,.38-8.36,4.86A76.89,76.89,0,0,0,240,476.3c8.8,9.8,23.69,17.67,36.35,10.09,10.48-6.28,13.25-19.56,13.7-30.86.7-17.21-1.36-34.85-4.58-51.74-2.89-15.15-6.64-31-14.44-44.44-4.94-8.54-18.71-27.07-30.15-18-9.69,7.7-4.76,24.74-2.73,34.71A218.83,218.83,0,0,0,309.94,497.8a5,5,0,0,0,8.35-4.87c-5.63-27.53-25.94-50.36-52.27-59.85a5,5,0,0,0-5.65,2.3c-6,12.12,1.71,25.67,13.55,30.57,15,6.22,30.7-3.49,41.74-13.07,4.87-4.22-2.23-11.27-7.07-7.07-7.44,6.46-17.83,13.89-28.31,11.72-6.95-1.43-15-9.65-11.27-17.1l-5.65,2.3c23.16,8.33,40.38,28.86,45.29,52.86l8.36-4.87a209.56,209.56,0,0,1-70.52-124.33c-.76-4.56-2-9.67-.81-14.26.67-2.6,1.18-3.6,3.8-2.29s5.1,4.1,7,6.28c8.05,9,12.11,20.95,15.2,32.41a243,243,0,0,1,7.64,44.4c.88,11.45,2.35,24.54-1.49,35.64-1.72,5-5,9.65-10.47,10.69-6.77,1.28-13.58-3.31-18.18-7.78-10.32-10-16.1-24.31-18-38.36L222.82,438c8.73,9.37,14.68,24.63,9.91,37.24-1.83,4.85-5.88,10.18-11.71,8.38-6.44-2-11.16-10.21-13.81-15.9A46.28,46.28,0,0,1,203,447.14c.11-4.82,1.21-11.71,5.71-14.55,4.78-3,9.66,1.85,13,4.84,4.2,3.73,8.27,7.17,13.63,9.09s8.63-6.32,3.85-9.14c-12.07-7.11-19-23.82-35.32-22.35-16.63,1.49-19.16,22.23-19.39,35.29-.16,8.88.74,17.73.86,26.61.05,3.89.49,8.81-.68,12.57-1,3.36-4.32,2.83-7,1.68-11.49-4.78-15.31-20.57-17.6-31.41-3-14.21-4.73-28.86-12.06-41.7-1.93-3.39-6.62-3.07-8.63,0a92,92,0,0,0-8.39,83.72l9.14-3.85c-19.6-36.39-40-74.6-41.12-116.87l-9.32,2.52c15.93,20.81,19.62,50.34,7.52,73.93C91.32,468.84,81.25,480,67.51,479.84c-6.2-.07-12.62-2.61-15.73-8.27-2.72-5-2.87-11.51,1-15.89l-6.06.78c24.52,13.5,38.14,39.1,50.68,63l8.64-5a548.19,548.19,0,0,1-37.51-58.16q-8.34-14.91-15.71-30.33c-4.15-8.66-10-20.07-4.32-29.3l-5.65,2.29c8.78,2.1,11.54,11.92,12.37,19.89,1.13,10.69-.22,22.22-2.66,32.63-4.9,20.9-19.32,42.5-42.53,44.6-6.36.57-6.42,10.57,0,10Z"/><path d="M362.42,482.61c8.07,13,25.5,14.47,37.95,7.11,14.18-8.37,23-25.06,28.25-40.1,9.64-27.61,10.15-73-20.21-88.48a5.13,5.13,0,0,0-6.84,1.79c-7.21,11-3.17,24.68,1,36.06a202.52,202.52,0,0,0,16.19,33.48c13.06,22,29,42.08,43.07,63.44a257.74,257.74,0,0,1,18.29,31.95c5,10.58,11.83,24.73,9.42,36.73-2.69,13.42-17.64,11.75-27.08,6.91-10.37-5.32-19-14.65-25.23-24.32-12.53-19.27-17.72-43.6-13.1-66.22,2.23-10.91,6.33-26,18.35-29.52,12.38-3.56,25.68,1.87,38.16-2.21a30.2,30.2,0,0,0,20.07-23.52c1.78-10.58-3-25.47-16-25.16S466.31,414.88,468,425.87c2.07,13.35,9,28.11,16.92,38.94,8.28,11.26,20.13,19.9,34.3,21.53,13.41,1.55,25.67-4.56,33.54-15.3,14.23-19.39,16-53.84-4.58-69.45-2-1.52-5.82-.46-6.84,1.79-11.26,24.87.64,52.27,17,71.87,8.18,9.83,19,16.57,32.23,14.12,12.67-2.35,22.56-11.84,28.29-23,6.52-12.66,9.39-27.26,11.21-41.26a181.53,181.53,0,0,0,0-46.75c-1.49-11.43-4.14-23.25-11.25-32.6-6.32-8.31-19.8-17.22-29.11-7.88-8.16,8.18-6.4,23.74-5.93,34.16a201.27,201.27,0,0,0,6.14,41A197.79,197.79,0,0,0,626.44,487c7.25,9.07,18.94,16.46,29.63,7.85,9.46-7.61,13.08-22.69,16-33.86a170,170,0,0,0,5.7-44.66c-.07-9.85-1.7-23.82-12.71-27.55-11.86-4-21.05,8.2-19.79,19.16,1.61,14,16.9,19.63,28.7,22.17,7.64,1.65,16,2.84,21.94,8.31,5.1,4.66,7.85,11.31,9.82,17.79,1,3.31,1.85,6.69,2.59,10.07.25,1.15,1.27,3.33.23,4.37-.87.87-3.69.55-4.8.55-3.52,0-8,.12-11.08-1.83-2.05-1.28-4.09-4.23-1.92-6.28,4.7-4.42-2.38-11.48-7.07-7.07-7.43,7-3.09,18.74,5.3,22.67,7.13,3.34,21.51,4.95,27.4-1.64,3.64-4.07,2.52-9.33,1.42-14.14a104.07,104.07,0,0,0-4.91-16.33C709,437,702.71,429.07,693,425c-10.35-4.4-23-3.71-32.33-10.37-3.71-2.64-6.39-6.46-5.26-11.12.85-3.47,4-7.17,7.68-4.58,3.2,2.27,4.1,7.72,4.47,11.26.67,6.51.24,13.35-.27,19.86a159.32,159.32,0,0,1-8,38.8c-2.62,7.75-8.25,26-19.51,17.72-4.68-3.46-8.21-9-11.5-13.66q-5.29-7.55-9.85-15.57a192.89,192.89,0,0,1-23.14-68.22c-1.59-11.44-2.47-23.49-1.48-35,.28-3.21.93-9.06,4.69-10.09,5.11-1.38,11.4,6.14,13.68,9.72,6,9.45,7.71,21.2,8.69,32.15a173,173,0,0,1-1.06,40.74c-2,13.45-4.88,28.15-12.48,39.67-6.73,10.21-20.33,17.95-32.06,11C564.68,471,556.85,457.61,552,446.64c-5.27-12-7.58-25.92-2-38.21l-6.84,1.79c9,6.82,10.77,19.62,10.06,30.14-.69,10.27-4.34,21.22-11.73,28.64-8.5,8.54-20.88,9.47-31.54,4.45-11.33-5.33-18.74-15.65-24.06-26.65-3.58-7.41-15.86-31.84-2.31-36,6-1.81,7.79,6.55,7.58,10.85a20.69,20.69,0,0,1-7,14.41c-9.2,8-23.09,4.07-34.1,4.37-11.81.33-21.47,5-27.47,15.46-21.32,37.16-8,90.06,24,116.72,8,6.68,17.54,11.89,28.14,12.55s20.26-5.07,23.77-15.2c3.77-10.88,0-23-3.8-33.31a202,202,0,0,0-14.78-30.78c-13.27-22.79-29.79-43.43-44.25-65.43a251.39,251.39,0,0,1-19.23-34c-4.77-10.52-13.31-27.53-6.16-38.47l-6.84,1.79c24.05,12.29,23.74,48.36,17.65,70.66-3.53,12.92-9.77,26.4-19.5,35.85-7.81,7.58-23.31,12.8-30.46,1.28-3.39-5.45-12-.44-8.63,5.05Z"/><path d="M817.77,419.72c-5.64-11.79-19.83-15.47-31.79-12.5-14.73,3.66-23.14,17-24.88,31.45-1.85,15.41,2.37,33.48,13.53,44.74,11,11.09,28,10.23,35.24-4.56,8.69-17.82,3.92-41.46-4.32-58.47-2.19-4.52-9.46-2.27-9.32,2.52A76.29,76.29,0,0,0,807,460a73.53,73.53,0,0,0,12.11,15.21c4.32,4.14,9.78,8.83,16.23,7.46,12.2-2.59,13.77-19.34,14.6-29.28a99.92,99.92,0,0,0-6.36-43.71c-1.93-5.05-9.77-4.64-9.82,1.33a92.29,92.29,0,0,0,9,40.73A89.43,89.43,0,0,0,854,469.45c3.85,4.76,8.42,9.78,14.71,11,14.88,2.84,16.61-15.85,17-26A127.55,127.55,0,0,0,879,408.08c-1.76-5.2-9.82-4.52-9.82,1.33a98.46,98.46,0,0,0,30.74,71.25c6.19,5.83,14.4,13.2,23,14.88,19.25,3.75,24.24-25.42,27-38.5a181.12,181.12,0,0,0-17.74-122.28,5.05,5.05,0,0,0-7.85-1c-8.4,8.15-9.67,20-8.44,31.09,1.57,14.07,5.14,28.11,8.78,41.77a452,452,0,0,0,31.32,83l7.85-6.06a365.34,365.34,0,0,1-42.46-51l-7.85,6.06c10.23,11,22.92,23.15,38.73,24.4,14.62,1.16,26.19-8.76,32.63-21.06,15.23-29.13,13.61-67.3,1.39-97.08-1.33-3.22-5.56-5.27-8.36-2.2-17.16,18.82-8.67,47.81-3.45,69.69a520,520,0,0,0,27.87,83.86c2.3,5.38,10.37,1.43,9.14-3.85a92.32,92.32,0,0,1,20.76-81.71l-8.35-2.21c8.42,61.55,25.09,131.39,83.79,164.17,5.62,3.14,10.67-5.49,5-8.63-56.28-31.43-71.16-99.42-79.2-158.2-.51-3.72-6-4.78-8.36-2.2a102.83,102.83,0,0,0-23.33,91.44l9.13-3.86a506,506,0,0,1-25.53-76c-2.93-11.74-6.08-23.79-7.25-35.86-1-10.3-.52-21.54,6.8-29.57l-8.35-2.21c10.8,26.32,12.58,57.28,2.06,84-4.19,10.65-12.22,22-25,21.53-13.46-.49-24.62-12.38-33.14-21.56-3.8-4.1-11.11,1.32-7.85,6.06a378.55,378.55,0,0,0,44,53c4.16,4.16,10.3-1.09,7.85-6.06a438.91,438.91,0,0,1-28.85-75.32c-3.56-12.71-6.61-25.6-9-38.6-1.78-9.85-3.29-22.21,4.6-29.86l-7.86-1a171.37,171.37,0,0,1,19.25,98.44,163,163,0,0,1-4.64,25.15c-1.69,6.35-3.33,16.48-8.61,21-5.68,4.87-16-5.06-20.25-8.77a87.11,87.11,0,0,1-15.11-17.24,88.32,88.32,0,0,1-14.94-49l-9.82,1.33a119,119,0,0,1,6.44,34.53,98.41,98.41,0,0,1-.81,18.24c-.76,4.86-2.65,9.3-7.85,5.33-8-6.12-13.86-17-17.54-26.21a82.38,82.38,0,0,1-5.88-31.6l-9.83,1.33a92.45,92.45,0,0,1,6.33,32.95,86.86,86.86,0,0,1-1.49,16.57c-.55,2.85-1.51,9.82-5,10.91-3.62,1.14-9.35-6.23-11.46-8.62A64.34,64.34,0,0,1,814,452.22a65.34,65.34,0,0,1-7.81-29.32l-9.32,2.52A70.94,70.94,0,0,1,804,452c.44,7.5.31,16.15-3.36,23-3.51,6.52-10.19,8.1-16.23,3.72-5.81-4.2-9.43-11.13-11.36-17.88-3.7-12.89-4.36-31.67,7.88-40.52,8.59-6.22,23.19-6.06,28.21,4.44,2.78,5.81,11.4.74,8.64-5Z"/><path d="M1054.42,456.36c18.28,6.6,31-17.68,31.26-32.64.11-6.88-1.84-15-8.16-18.79-7.32-4.38-15.75-1.16-20.48,5.29-5.28,7.21-6.53,16.43-7.53,25.06-1.23,10.56-.86,21.5,3.53,31.34,6.6,14.81,26.4,25.84,41.52,16.2,9.36-6,12.86-17.33,15.08-27.6a152.7,152.7,0,0,0,3.17-40.34c-.33-6.4-9.83-6.47-10,0a123.22,123.22,0,0,0,15.89,63.64c2.37,4.21,9.57,2.49,9.32-2.52-.87-17.51-1.66-35.84,4.35-52.61a53,53,0,0,1,5.45-10.94,28.19,28.19,0,0,1,3.79-5,7.39,7.39,0,0,1,2.48-1.89c1.7-.47,1.16-.42,1.91,1.12,2.14,4.41,2,11.21,2.59,16,.58,5.11,1.09,10.23,1.79,15.33,2.3,16.6,7.9,34.28,22.52,44.1,6.69,4.5,15.59,7,22.88,2.41,6.26-3.93,9-11.73,10.15-18.65,3.37-19.71,3.63-40.4,2.6-60.32a331.3,331.3,0,0,0-9.32-62.72c-2.13-8.55-4-18-9.86-24.89-4.69-5.46-12.08-8-18.37-3.53-6.66,4.7-9.25,15.33-10.74,22.81a90.1,90.1,0,0,0-1,27.81c2.54,22.32,10.84,43.52,19.79,64a598.62,598.62,0,0,0,32.43,62.51l7.85-6.06c-9.15-11.76-20-25.33-20.91-40.86a33.82,33.82,0,0,1,3.26-17c1.63-3.26,8.79-13.49,13.44-10.72,2.28,1.35,3.06,9.07,3.32,11.26.43,3.59.48,7.24.57,10.86.18,6.91.28,14.06,2.69,20.63,4.3,11.74,14.35,21.95,27.69,19.28,6.3-1.26,3.63-10.9-2.66-9.64-7.51,1.5-13-6.18-15.39-12.3-3.12-8-2-17.1-2.62-25.53-.48-7.05-1.48-16.2-6.5-21.71-5.42-6-13.67-2.89-19.26,1.14-11.21,8.1-15.82,23.06-14.3,36.42,2,17.45,13.16,31.85,23.6,45.25,3.54,4.55,10.66-1.27,7.85-6.05-19.06-32.51-37.79-67.1-47.39-103.77-4.56-17.43-6.4-36.29.17-53.47.86-2.24,2.46-7.42,5.55-7.19s5.73,5.71,6.75,8.14c3.66,8.76,5.36,18.92,7.27,28.18a314.49,314.49,0,0,1,6.4,57.55q.3,14.6-.74,29.18c-.59,8.23-.64,17.48-3.69,25.27-3.44,8.8-11.32,7.27-17.83,2.18-6.09-4.75-10.13-11.92-12.62-19.12-3-8.71-4-17.88-5-27-.87-8-.8-18.16-4.43-25.44-4.16-8.32-13.67-6.45-19.49-1.09-6.2,5.7-10.21,14.37-12.84,22.24-5.76,17.2-5.11,36-4.22,53.84l9.31-2.53a113.13,113.13,0,0,1-14.52-58.59h-10c.84,15.83-.26,32.61-5.49,47.69-2,5.91-5.78,12.19-12.38,13.54-5.62,1.14-11.57-1.21-15.93-4.68-11.69-9.34-11-26.5-9-39.87.85-5.58,1.91-12.39,6-16.62,3.55-3.65,7.49-1.76,8.9,2.62,1.82,5.66.45,12.45-2,17.7-2.77,5.94-8.34,14.17-15.87,11.45-6.06-2.19-8.68,7.47-2.66,9.65Z"/><path d="M1264.29,404.22a8.14,8.14,0,0,0-10.07-3.49c-4.72,1.84-6.53,7.1-8.13,11.48-3.74,10.27-5,22.18-1.35,32.66,5.88,16.81,26.65,28.32,43,18.1,5.45-3.4.43-12.05-5-8.63-8.75,5.47-20.37,1-25.82-7.18-3.54-5.3-4.57-11.88-4.24-18.13a45.77,45.77,0,0,1,1.8-10.18c.39-1.34.83-2.67,1.31-4q.48-1.35,1-2.67,1.55-1.81-1.13-2.93c3.41,5.44,12.07.42,8.63-5Z"/><path d="M1222.13,380.46c6.44,0,6.45-10,0-10s-6.44,10,0,10Z"/><path d="M7.18,665.33c20.94,11.35,45.11-1.48,59.89-17.09s23.67-36.4,27-57.53c1.65-10.52,2.77-21.85.68-32.37-1.6-8.05-9.55-22.72-19.63-15.5C71,545.79,70,551,69.34,555.7a118.33,118.33,0,0,0-1,18.62,140.85,140.85,0,0,0,5.89,36.27c8,27,22.66,51.69,39.7,73.95,3.79,5,12.28.45,8.63-5a330.7,330.7,0,0,0-54.15-63L64.83,625c25.56.39,47.78-13.36,68.39-26.92l-6.84-6.84c-10.67,18.37-19.34,40.51-8.79,60.92,4.3,8.32,12,15.35,21.34,17.36,10.12,2.18,19.33-2.41,22.82-12.27,3.2-9,2.92-20.09,1.69-29.46s-4.31-18.75-10.41-26.25c-5.81-7.13-15.13-13.16-21.91-3.64-5.15,7.21-5.21,17.11-1.43,24.93,9.43,19.56,37.82,15.29,44.38-4.19,2.05-6.11-7.6-8.73-9.65-2.66-3.6,10.7-19.31,13.62-25.24,3.43-2.37-4.07-3.63-11.53-.13-15.45,1.2-1.34.34-1.28,2-.3a16.81,16.81,0,0,1,3.52,3.38,32.16,32.16,0,0,1,5.25,8.21c4.93,10.83,6.24,26.51,2.7,38-2.48,8-10.46,8.14-16.85,4.4-5.17-3-8.86-8.2-10.92-13.75-6.1-16.41,2-33.49,10.22-47.57,2.42-4.18-2.55-9.66-6.84-6.85C109.09,602,88.54,615.37,64.83,615c-4.19-.06-6.78,5.61-3.53,8.54a321.19,321.19,0,0,1,52.59,61l8.63-5C98.41,648,77.51,610,78.28,569.25a74.51,74.51,0,0,1,1.25-14.54c.14-.64.35-2.8,1-3.11.8-.4-3.08-1.59.86.51,1.85,1,3,5.57,3.41,7.36,2,8.27,1.1,17.81,0,26.17C82.5,603,76.37,620.21,65.84,634.28c-11.26,15-34.07,33-53.61,22.41-5.66-3.06-10.72,5.57-5.05,8.64Z"/><path d="M239.11,654.44c6.65,10.51,19.78,14.51,31.6,11.49,12.9-3.29,22.56-14.28,28.62-25.6,11.75-21.92,12.57-49.07,3.54-72.11a83.75,83.75,0,0,0-24.11-34.06c-3-2.51-8.88-1.18-8.53,3.53a246.7,246.7,0,0,0,58,141.41c3.4,4,9.44-.33,8.35-4.86a113.3,113.3,0,0,0-33.68-57.14c-6.54-5.93-16-14.73-25.75-12.12-10.9,2.92-9.61,15.79-4.53,23.18,10.81,15.72,33.16,21.42,50.34,13.4,17.93-8.36,24.8-28.5,26.74-46.82,2.33-22.1,1.18-49.92-15.21-66.73a5.06,5.06,0,0,0-8.54,3.53,246.28,246.28,0,0,0,38.81,130c2.46,3.83,9.82,2.73,9.32-2.53a144.62,144.62,0,0,1,11.55-72.58l-9.13-1.19,14.27,36.68c4.08,10.48,7.93,21.19,13.48,31,10.25,18.13,28.25,32.72,50.12,29.49,6.34-.93,3.65-10.57-2.66-9.64-19.88,2.94-34.33-15.13-42-31-9.21-19-15.92-39.53-23.58-59.22-1.36-3.5-7.2-5.55-9.14-1.2A154.43,154.43,0,0,0,364.06,659l9.32-2.52a236.28,236.28,0,0,1-37.45-124.92l-8.54,3.54c11.73,12,12.94,30.37,12.94,46.29,0,14.42-1.66,31-11,42.62a30.41,30.41,0,0,1-38.08,7.55,29.25,29.25,0,0,1-8.29-6.36c-1.56-1.74-6.17-7.41-4.08-9.92,3.87-4.65,17.44,9.26,19.84,11.62a103.9,103.9,0,0,1,28.24,50l8.36-4.87a235.29,235.29,0,0,1-55-134.34l-8.54,3.54c20.23,16.86,30.11,44,26.65,70-1.72,12.93-6.88,26.22-15.87,35.83-8.58,9.19-26.35,15.55-34.73,2.31-3.43-5.42-12.09-.41-8.63,5.05Z"/><path d="M427.58,635.76c8.42,3.24,14.62-5.28,17.53-12a47.78,47.78,0,0,0,3.58-26.64c-1.29-7.85-8.2-14.31-16.25-9.81-8.21,4.59-7.24,14.93-6.06,22.83,2.56,17.1,11.19,35.71,25,46.6,6,4.71,13.58,8.19,21.32,6.67s12.89-8.06,15.07-15.42c2.94-9.92,2.59-21.25,2.75-31.5.15-9.57,1.43-20.65-7-27.1-3.33-2.54-7.22,1-7.52,4.32-2.32,25,12.18,54.23,36.5,63.59,6,2.33,12.69,1.11,16-4.83s3.45-14.19,3.64-20.66A96,96,0,0,0,522,586.67c-2.65-5.37-10.15-1.4-9.14,3.85,4.33,22.47,15.45,42.65,26.57,62.38l8.63-5a111.07,111.07,0,0,1-17.52-35.58,90.81,90.81,0,0,1-3.55-18.9,23.12,23.12,0,0,1,.05-3.33l.28-.86q-2.05.18,0,1.14c.91,2,3.34,4.5,4.73,6.26,6.44,8.16,16.34,15.42,27.31,13.24,10-2,17.85-11.56,15.36-21.86-1.52-6.25-11.17-3.6-9.65,2.66,1.26,5.17-4.38,9.24-9,9.59-5.77.43-11-3.9-14.58-7.9-3.47-3.84-5.78-9.33-10.64-11.67a9.24,9.24,0,0,0-12.1,3.49c-2.56,4.32-1.73,9.66-1.12,14.35a116.68,116.68,0,0,0,4.3,19.73,119,119,0,0,0,17.56,34.69c3.72,5.09,11.86.69,8.63-5-10.72-19-21.38-38.3-25.56-60l-9.14,3.85a84.69,84.69,0,0,1,8.75,34.07A77.71,77.71,0,0,1,521,643.41c-.48,2.48-.75,5.28-3.75,5-2.46-.22-5.33-2.46-7.33-3.77-16.73-11-25.79-31.21-24-50.92l-7.53,4.31c2.55,2,2.06,7.26,2.1,10,0,3.76,0,7.53-.09,11.3-.17,7.45-.13,15.24-1.51,22.59-1.1,5.83-3.9,12.4-10.92,11.87-6.47-.49-12.11-5.7-16.08-10.39A70,70,0,0,1,435.65,604c-.13-1.84,0-10.25,2.82-7,1.76,2,.83,9.08.58,11.39-.34,3.17-3.79,19.63-8.81,17.7-6-2.31-8.61,7.35-2.66,9.64Z"/><path d="M476.18,553.44c6.44,0,6.45-10,0-10s-6.44,10,0,10Z"/><path d="M631.27,665.21c20.13,5.68,41.72-3.42,54.44-19.44,13.46-17,19-41.64,16.12-63-1.36-10-6.37-19.66-16.4-23.25-8.65-3.1-18.31.25-22,8.9-3.46,8.1-1.18,17.95,4.54,24.44,7.25,8.2,18.36,11.14,28.37,14.42,17.72,5.81,42,17.59,37.6,40.35-1.3,6.77-8.93,17.44-17.11,12.31-5.51-3.46,1.86-11.23,4.3-14.24l12.81-15.84c14.75-18.23,33.48-37.11,39.22-60.59,2.32-9.51,2.38-20-.77-29.31-2.75-8.13-9-19-18.14-21.07-12.06-2.81-15.24,11.43-14.8,20.24A255.11,255.11,0,0,0,745,580.08a263.18,263.18,0,0,0,30.49,77.82c3.35,5.71,11.11.71,8.63-5a191,191,0,0,0-45.57-64.41c-4.77-4.42-11.23,2.22-7.07,7.07,16,18.59,48.5,18.1,63.69-1.25,3.93-5-3.1-12.13-7.07-7.07-12,15.31-36.81,16.08-49.55,1.25l-7.07,7.07a184.06,184.06,0,0,1,44,62.38l8.63-5a254.25,254.25,0,0,1-26.34-62.48,248.21,248.21,0,0,1-6.69-33.52c-.68-5.28-1.17-10.6-1.5-15.92-.15-2.28-1.31-10.89,1.72-12.19,2.67-1.14,7.33,5.76,8.47,7.6a34.52,34.52,0,0,1,4.66,13.12c1.44,9.66-.73,19.48-4.84,28.23-4.7,10-11.47,18.83-18.34,27.38q-11.41,14.19-22.9,28.31c-5.93,7.33-16,16.63-13,27.16,2.24,7.8,10.72,11.1,18.19,10.19,17.24-2.12,23.27-22.08,19.7-36.79-4.54-18.76-23-28.79-39.81-34.76-9-3.19-19.59-5-26.76-11.71-4.61-4.3-8.48-16.83.47-19,4.74-1.13,9.53,2.42,11.87,6.25,3.18,5.23,3.44,11.81,3.39,17.76-.09,11.38-1.9,23-6.44,33.52-8.6,19.87-29.62,35.84-52,29.52-6.2-1.75-8.85,7.89-2.66,9.64Z"/><path d="M790.11,586.2a86.58,86.58,0,0,0,8.18,38.92c4.85,10.41,12.89,23.89,24.74,27.21,15.43,4.32,18.88-13.28,20.45-24.5a108.12,108.12,0,0,0-3-44l-9.14,3.85a545.36,545.36,0,0,1,34.42,73.59q7.15,18.88,12.89,38.26c2.72,9.17,9.22,29.62-5,33.19-11.32,2.84-17-18.8-17.84-26.5a47.44,47.44,0,0,1,9.09-33.12c7.29-9.91,16.77-17.87,22.83-28.73a79.89,79.89,0,0,0,9.34-31c2.59-25.67-5.73-51.92-18.37-74-1.45-2.53-4.39-2.89-6.84-1.8-14.37,6.41-13.4,25.18-10.59,38a241.78,241.78,0,0,0,19.57,55.35,215.9,215.9,0,0,0,14.53,25.32c4.7,7,10.71,13.75,18.5,17.26,7.28,3.27,15.48,2.77,21.59-2.68,5.94-5.3,8.17-13.86,9.83-21.35,3.52-16,3.79-35-10.94-45.41-2.38-1.68-5.34-.22-6.84,1.79-10,13.4-9.41,33,1.38,45.78s29,15.65,43.76,9.19c5.88-2.58.79-11.2-5.05-8.63-10.67,4.67-24.38,1.41-31.68-7.7-7.82-9.76-7-23.85.23-33.59l-6.85,1.79c9.7,6.83,8.85,21.15,6.9,31.44-1.09,5.75-2.32,12.68-5.84,17.48-4.44,6-11.32,4.16-16.54.29-5.63-4.16-9.51-10.06-13.16-15.92q-6.08-9.78-11.19-20.11a231.14,231.14,0,0,1-16.26-43.49c-2.62-9.9-9.1-30.48,3.69-36.19L870,544.42c12.48,21.78,20.74,48.31,16.37,73.57a68.25,68.25,0,0,1-16,33.44c-9,10.39-18.51,19.9-22.53,33.42a57.46,57.46,0,0,0,1.25,36.28c3.91,10.28,11.84,23,24.51,21.67,13-1.33,19.59-15,18.82-26.81-.93-14.14-6.87-28.58-11.44-41.85a561,561,0,0,0-41-91.51c-2.77-5-10.67-1.62-9.14,3.85a99.07,99.07,0,0,1,3.49,33.7,91.07,91.07,0,0,1-2.71,16.57c-.55,2.12-1.11,5.49-3.58,6.19-1.93.54-4.64-1.16-6.12-2.16-7.66-5.21-13-15.63-16.39-24a76.45,76.45,0,0,1-5.38-30.57c.16-6.43-9.84-6.43-10,0Z"/></g></g></svg>